HIERARCHY
ROOT Hips
{
	OFFSET 0.00000 0.00000 0.00000
	CHANNELS 6 Xposition Yposition Zposition Yrotation Zrotation Xrotation 
	JOINT Lumbar
	{
		OFFSET 0 0 0
		CHANNELS 3 Zrotation Xrotation Yrotation
		JOINT Neck
		{
			OFFSET 0.00 0.2701 0.00
			CHANNELS 3 Zrotation Xrotation Yrotation
			End Site
			{
				OFFSET 0.00 0.1379 0.00
			}
		}
		JOINT RightShoulder
		{
			OFFSET 0.0119 0.2289 0.1181
			CHANNELS 3 Zrotation Xrotation Yrotation
			JOINT RightElbow
			{
				OFFSET 0.00 -0.1475 0.00
				CHANNELS 2 Zrotation Yrotation
				JOINT RightWrist
				{
					OFFSET 0.00 -0.1605 0.00
					CHANNELS 2 Zrotation Xrotation
					End Site
					{
						OFFSET 0.0040 -0.1068 0.0006
					}
				}
			}
		}
		JOINT LeftShoulder
		{
			OFFSET 0.0119 0.2289 -0.1181
			CHANNELS 3 Zrotation Xrotation Yrotation
			JOINT LeftElbow
			{
				OFFSET 0.00 -0.1475 0.00
				CHANNELS 2 Zrotation Yrotation
				JOINT LeftWrist
				{
					OFFSET 0.00 -0.1605 0.00
					CHANNELS 2 Zrotation Xrotation
					End Site
					{
						OFFSET 0.0040 -0.1068 -0.0006
					}
				}
			}
		}
	}
	JOINT RightHip
	{
		OFFSET 0.0316 -0.0424 0.0458
		CHANNELS 3 Zrotation Xrotation Yrotation
		JOINT RightKnee
		{
			OFFSET 0.00 -0.2438 0.00
			CHANNELS 1 Zrotation
			JOINT RightAnkle
			{
				OFFSET 0.00 -0.2449 0.00
				CHANNELS 3 Zrotation Xrotation Yrotation
				End Site
				{
					OFFSET 0.1237 -0.0542 0.0051
				}
			}
		}
	}
	JOINT LeftHip
	{
		OFFSET 0.0316 -0.0424 -0.0458
		CHANNELS 3 Zrotation Xrotation Yrotation
		JOINT LeftKnee
		{
			OFFSET 0.00 -0.2438 0.00
			CHANNELS 1 Zrotation
			JOINT LeftAnkle
			{
				OFFSET 0.00 -0.2449 0.00
				CHANNELS 3 Zrotation Xrotation Yrotation
				End Site
				{
					OFFSET 0.1237 -0.0542 -0.0051
				}
			}
		}
	}
}
MOTION
Frames: 33
Frame Time: 0.02
-0.40496 -0.00245 -0.0197 -123.77101 -25.68237 1.81486 37.73165 0.34932 -0.87914 -11.12895 -12.53294 -2.11994 -23.28902 -12.58037 31.57704 118.61727 92.8131 14.66845 -0.50904 -7.80461 9.95127 -36.96525 118.63572 -111.73082 20.76646 -2.39338 18.85667 -4.21311 -7.99099 -17.61138 -6.22245 -2.28004 -3.32839 26.96001 20.70624 -7.6486 -7.91827 -10.31686 -0.88983 1.96961
-0.40788 -0.00345 -0.02694 -121.82556 -25.38518 1.4588 36.73669 0.58217 -1.46705 -10.96435 -12.37968 -2.11994 -23.61136 -12.35991 31.60464 118.72831 93.29841 14.46132 -0.36348 -7.47326 10.3172 -37.39587 118.72622 -111.62805 20.37325 -2.55494 18.70806 -2.91508 -9.20661 -17.42591 -6.20792 -2.36542 -3.36969 28.73256 20.78554 -8.09923 -9.67903 -10.33307 -0.76393 2.03321
-0.41014 -0.00482 -0.0342 -119.75908 -25.12275 1.12865 35.68295 0.85172 -2.07489 -10.74395 -12.22904 -2.11994 -24.01035 -11.86612 31.50012 118.77728 94.64277 14.62015 -0.09077 -7.07067 10.67973 -37.81805 118.84879 -111.91725 20.08472 -2.85427 18.77372 -1.7065 -10.50189 -17.38412 -6.19171 -2.45306 -3.41222 30.8915 20.60352 -8.25904 -12.00766 -10.29157 -0.60095 2.11338
-0.41266 -0.00597 -0.0414 -117.74022 -24.84875 0.80019 34.66725 1.10516 -2.66514 -10.5568 -12.07892 -2.11994 -24.3692 -11.50842 31.45946 118.8527 95.53067 14.58971 0.11388 -6.72458 11.02634 -38.23049 118.95201 -111.9914 19.73843 -3.07471 18.75094 -0.47834 -11.73212 -17.27818 -6.17994 -2.54247 -3.45569 32.82959 20.51621 -8.46832 -14.00782 -10.27495 -0.45095 2.18779
-0.41531 -0.00732 -0.04884 -115.74731 -24.54973 0.41153 33.59603 1.35809 -3.30048 -10.33839 -11.92022 -2.11994 -24.75446 -11.09988 31.406 118.93523 96.67716 14.64469 0.35964 -6.27808 11.45375 -38.70407 119.07741 -112.20371 19.4246 -3.35877 18.68586 0.84565 -13.07211 -17.16966 -6.15326 -2.62147 -3.49354 34.95899 20.52623 -9.03207 -16.31403 -10.26237 -0.31454 2.25598
-0.41753 -0.00834 -0.05576 -113.67375 -24.3148 0.1567 32.63099 1.61931 -3.84176 -10.17046 -11.78024 -2.11994 -25.10059 -10.7325 31.34723 118.9887 97.50061 14.61554 0.55255 -6.02129 11.7111 -39.04642 119.16407 -112.23183 19.07555 -3.54569 18.76299 1.94384 -14.20829 -17.10026 -6.157 -2.72183 -3.54297 36.78253 20.27437 -8.79794 -18.11286 -10.22885 -0.14344 2.33993
-0.41875 -0.00833 -0.06127 -111.40636 -24.23577 0.25256 31.95419 1.9038 -4.13509 -10.1628 -11.69492 -2.11994 -25.32963 -10.54679 31.29805 118.97241 97.17543 14.2334 0.54671 -6.33051 11.4778 -39.03363 119.1282 -111.60975 18.55968 -3.4222 19.16176 2.46894 -14.74462 -17.09772 -6.24536 -2.88462 -3.62602 37.65339 19.34771 -6.28727 -18.38952 -10.14485 0.13177 2.47174
-0.41955 -0.00798 -0.06625 -109.06354 -24.22275 0.48459 31.39034 2.1935 -4.32865 -10.2062 -11.62794 -2.11994 -25.51438 -10.4118 31.24916 118.9298 96.50639 13.76041 0.48704 -6.82879 11.07615 -38.88777 119.05327 -110.79912 18.01322 -3.19849 19.69951 2.76422 -15.07667 -17.13026 -6.36437 -3.06795 -3.72027 38.20438 18.17042 -3.00733 -18.13249 -10.04323 0.43758 2.61741
-0.42051 -0.00778 -0.07144 -106.75559 -24.18926 0.66316 30.78881 2.47455 -4.55621 -10.22147 -11.55043 -2.11994 -25.71259 -10.25299 31.20466 118.90235 96.02755 13.3514 0.46667 -7.2242 10.76478 -38.79881 119.00087 -110.1068 17.51133 -3.02675 20.18708 3.14509 -15.5168 -17.15031 -6.469 -3.23907 -3.80802 38.91188 17.11768 -0.17247 -18.10594 -9.95421 0.71733 2.75093
-0.42158 -0.00761 -0.07674 -104.43801 -24.11869 0.80817 30.12908 2.78339 -4.83351 -10.25616 -11.4822 -2.11994 -25.94171 -10.08803 31.13595 118.85947 95.43537 12.86161 0.38944 -7.68799 10.39578 -38.72416 118.92944 -109.29057 16.88615 -2.83227 20.6299 3.60148 -15.90007 -17.16101 -6.57508 -3.42231 -3.90166 39.59021 16.00824 3.07262 -18.14658 -9.84356 1.04816 2.90891
-0.42232 -0.00729 -0.08168 -102.12771 -24.13804 1.05366 29.61616 3.03513 -4.98196 -10.26257 -11.39901 -2.11994 -26.09488 -9.95133 31.12018 118.84298 94.98619 12.51074 0.41453 -8.05607 10.10629 -38.58887 118.888 -108.6821 16.50583 -2.66002 21.19284 3.84842 -16.34612 -17.19744 -6.68594 -3.58529 -3.9858 40.24282 14.96404 5.6456 -17.91773 -9.77479 1.28133 3.02005
-0.42228 -0.00662 -0.08579 -99.82658 -24.41205 1.55539 29.49984 3.12723 -4.80993 -10.18446 -11.26985 -2.11994 -26.0487 -9.88286 31.24432 118.90887 95.01734 12.59115 0.74905 -8.10602 10.08163 -38.31232 118.93783 -108.69671 16.83842 -2.56923 22.08145 3.56198 -17.06898 -17.29773 -6.79812 -3.68606 -4.03996 40.94754 14.13521 6.1425 -17.03211 -9.82415 1.21977 2.98938
-0.42193 -0.00581 -0.08955 -97.54157 -24.77017 2.15098 29.52475 3.16156 -4.51001 -10.07538 -11.12511 -2.11994 -25.9271 -9.84198 31.42336 119.00198 95.20144 12.80859 1.1852 -8.05475 10.14179 -37.9803 119.01895 -108.92446 17.41287 -2.50436 23.08011 3.07508 -17.85236 -17.42194 -6.91481 -3.76587 -4.08431 41.62714 13.38711 5.93965 -15.8988 -9.9169 1.06166 2.91256
-0.42171 -0.00507 -0.09345 -95.26903 -25.07452 2.69572 29.47217 3.2227 -4.2607 -9.97664 -10.98753 -2.11994 -25.84021 -9.78816 31.58218 119.08092 95.30816 12.94393 1.56522 -8.05537 10.16072 -37.67816 119.08668 -109.05049 17.85644 -2.42992 24.00862 2.68794 -18.57179 -17.5333 -7.0324 -3.85614 -4.13383 42.28684 12.62025 6.07847 -14.90445 -9.99126 0.95947 2.86293
-0.42151 -0.00427 -0.09742 -92.90994 -25.44573 3.2805 29.47723 3.28198 -4.03752 -9.89499 -10.84994 -2.11994 -25.75084 -9.73766 31.7216 119.16643 95.42962 13.15732 1.98546 -8.03831 10.1861 -37.35265 119.15076 -109.19041 18.38608 -2.34297 25.02605 2.25674 -19.4354 -17.65345 -7.13889 -3.94344 -4.1809 43.06768 11.76789 6.15006 -13.78078 -10.05932 0.80877 2.78818
-0.42121 -0.00358 -0.10116 -90.73626 -25.69818 3.80153 29.39739 3.33101 -3.73352 -9.77029 -10.70881 -2.11994 -25.64822 -9.68612 31.91366 119.24512 95.56987 13.2452 2.34669 -8.03078 10.21916 -37.06314 119.2289 -109.35477 18.79609 -2.28923 25.8839 1.87197 -20.019 -17.76163 -7.26882 -4.03135 -4.2304 43.59453 11.11721 6.17836 -12.87407 -10.15111 0.73425 2.75383
-0.42074 -0.00326 -0.1044 -89.06982 -25.58964 4.1299 29.02179 3.36848 -3.21525 -9.52925 -10.55838 -2.11994 -25.53701 -9.62518 32.24458 119.29824 95.64665 12.92373 2.52078 -8.08105 10.26417 -36.8967 119.35138 -109.53083 18.80086 -2.32346 26.26144 1.67233 -19.7864 -17.82087 -7.46531 -4.12866 -4.29059 43.425 10.9966 6.31618 -12.63305 -10.29722 0.90638 2.84897
-0.42017 -0.00306 -0.1074 -87.59061 -25.36065 4.38874 28.56047 3.39709 -2.62489 -9.24672 -10.40547 -2.11994 -25.41368 -9.56175 32.62502 119.34378 95.75112 12.47698 2.63222 -8.14261 10.31277 -36.76641 119.48491 -109.72486 18.67984 -2.39009 26.47601 1.5262 -19.27574 -17.86899 -7.6845 -4.22669 -4.35319 43.00225 11.07919 6.42098 -12.62063 -10.46587 1.15589 2.985
-0.41964 -0.0028 -0.11047 -86.02575 -25.1947 4.67486 28.15517 3.42804 -2.08251 -8.98612 -10.25574 -2.11994 -25.28962 -9.49939 32.97861 119.39287 95.89834 12.10736 2.77199 -8.19314 10.35296 -36.61464 119.60459 -109.91501 18.62703 -2.44084 26.77315 1.35136 -18.91244 -17.92849 -7.89129 -4.32259 -4.41361 42.69811 11.07415 6.4977 -12.502 -10.62477 1.36165 3.09795
-0.41914 -0.00255 -0.11368 -84.46107 -24.99679 4.98356 27.68216 3.46419 -1.4707 -8.71115 -10.09673 -2.11994 -25.18847 -9.43921 33.3536 119.44211 95.82578 11.65773 2.91536 -8.26353 10.42433 -36.48541 119.76158 -110.09786 18.53657 -2.49786 27.03929 1.18719 -18.46432 -17.96184 -8.10724 -4.42547 -4.47831 42.37908 11.05016 6.72796 -12.38339 -10.78331 1.60072 3.22849
-0.41856 -0.00231 -0.11655 -82.94369 -24.83558 5.22623 27.32879 3.48806 -0.98888 -8.4571 -9.95675 -2.11994 -25.0387 -9.37238 33.69362 119.48932 96.20469 11.34257 3.03571 -8.29859 10.43091 -36.31451 119.84439 -110.29309 18.4908 -2.54848 27.32863 1.01707 -18.12376 -18.04705 -8.30923 -4.51416 -4.53475 42.0299 11.11503 6.64515 -12.32334 -10.94712 1.78954 3.33247
-0.41783 -0.00209 -0.11857 -81.48316 -24.80631 5.31363 27.31912 3.48112 -0.87727 -8.26763 -9.86917 -2.11994 -24.75001 -9.29718 33.93276 119.52905 97.91536 11.43233 3.10098 -8.21658 10.25422 -36.05045 119.70786 -110.55233 18.60164 -2.5798 27.73152 0.81045 -18.16862 -18.27523 -8.46884 -4.56421 -4.5682 41.67179 11.3569 5.6601 -12.36162 -11.12168 1.82499 3.35509
-0.41702 -0.00187 -0.12024 -80.06969 -24.81758 5.3346 27.43358 3.4622 -0.90048 -8.10175 -9.80097 -2.11994 -24.41498 -9.21333 34.13038 119.56763 100.06024 11.65891 3.14564 -8.10265 10.01255 -35.73471 119.49819 -110.81459 18.75837 -2.60234 28.16107 0.5981 -18.32756 -18.55649 -8.61319 -4.5999 -4.59322 41.28987 11.68412 4.37301 -12.45313 -11.30007 1.80669 3.34932
-0.41623 -0.00167 -0.12204 -78.6519 -24.809 5.37891 27.49543 3.44847 -0.86728 -7.92698 -9.72459 -2.11994 -24.10608 -9.12734 34.34527 119.60895 101.94696 11.8223 3.20422 -8.01431 9.80234 -35.42661 119.32982 -111.05375 18.89353 -2.62458 28.57146 0.39432 -18.42022 -18.81517 -8.76352 -4.64181 -4.62192 40.91099 11.98434 3.25787 -12.5271 -11.47552 1.81089 3.35558
-0.41552 -0.00141 -0.12396 -77.16534 -24.80193 5.44981 27.53811 3.43557 -0.81244 -7.74168 -9.6458 -2.11994 -23.7738 -9.06751 34.58052 119.64036 104.09683 11.9923 3.24301 -7.87785 9.58366 -35.19912 119.12851 -111.39108 19.03474 -2.66579 29.00575 0.1681 -18.56285 -19.06667 -8.9191 -4.68512 -4.65143 40.55637 12.24262 1.99516 -12.58289 -11.65738 1.82664 3.36734
-0.41461 -0.00126 -0.12555 -75.83484 -24.80337 5.45039 27.65155 3.41811 -0.8338 -7.58615 -9.57626 -2.11994 -23.48125 -8.95041 34.748 119.69261 105.79473 12.17436 3.31698 -7.83597 9.36775 -34.77533 118.97744 -111.51727 19.16674 -2.66531 29.39898 -0.01469 -18.63373 -19.34623 -9.05929 -4.72196 -4.67711 40.14856 12.60499 0.96801 -12.68361 -11.82581 1.80359 3.35984
-0.41325 -0.00135 -0.12631 -74.88879 -24.81491 5.27347 27.92821 3.39202 -1.04913 -7.49331 -9.5312 -2.11994 -23.2946 -8.68525 34.86217 119.79949 106.19167 12.42745 3.50921 -8.04681 9.17243 -33.95391 118.98972 -111.1202 19.34113 -2.54847 29.67026 -0.06528 -18.46567 -19.68704 -9.16534 -4.74564 -4.69512 39.60448 13.23995 0.67028 -12.91828 -11.96172 1.69526 3.3106
-0.41168 -0.00154 -0.12674 -74.10417 -24.83488 5.02828 28.27262 3.36163 -1.3338 -7.43277 -9.49414 -2.11994 -23.15281 -8.36229 34.88427 119.9279 106.10705 12.67528 3.73438 -8.35765 8.98427 -32.91066 119.05349 -110.49936 19.49113 -2.39025 29.90038 -0.07434 -18.22512 -20.05477 -9.25549 -4.76307 -4.70939 39.00871 13.9741 0.61829 -13.19159 -12.08262 1.54807 3.24206
-0.41016 -0.00168 -0.12732 -73.26708 -24.85391 4.81442 28.58751 3.33256 -1.5762 -7.36622 -9.45097 -2.11994 -22.99999 -8.05928 34.86963 120.04876 106.20978 12.87941 3.93482 -8.63238 8.79268 -31.88403 119.0896 -109.94087 19.60031 -2.25322 30.15158 -0.10967 -18.02785 -20.41253 -9.34979 -4.78259 -4.72481 38.43395 14.65839 0.45202 -13.43021 -12.20693 1.41219 3.179
-0.40882 -0.00183 -0.12789 -72.34182 -24.86207 4.59705 28.90102 3.30568 -1.86858 -7.26236 -9.41881 -2.11994 -22.80447 -7.77848 35.19332 120.16066 106.46721 13.28279 4.17761 -8.86358 8.59292 -31.21634 119.14234 -109.54763 19.92765 -2.10655 30.39394 -0.11354 -17.79138 -20.76316 -9.4565 -4.8048 -4.74228 37.86608 15.36782 0.29043 -13.74041 -12.34668 1.29999 3.12823
-0.40705 -0.00198 -0.12841 -71.64007 -24.89434 4.3715 29.23228 3.27345 -2.07171 -7.24547 -9.36553 -2.11994 -22.71111 -7.44303 34.78099 120.2957 106.2742 13.26819 4.33788 -9.21338 8.42109 -29.74242 119.17212 -108.75824 19.79734 -1.96937 30.64414 -0.17352 -17.6171 -21.13362 -9.53382 -4.82008 -4.75468 37.2752 16.04499 0.17606 -13.91343 -12.44953 1.13156 3.04843
-0.40418 -0.0021 -0.12888 -71.49758 -24.99132 4.14182 29.59186 3.22702 -2.00932 -7.44464 -9.25037 -2.11994 -22.87402 -6.92558 32.44356 120.49514 105.02594 12.10045 4.28422 -9.83633 8.25214 -26.15352 119.13944 -106.92688 18.38406 -1.87814 30.93024 -0.39438 -17.63858 -21.55822 -9.53377 -4.81818 -4.75424 36.60609 16.62766 0.18092 -13.66866 -12.46378 0.80337 2.88674
-0.40087 -0.0022 -0.12931 -71.57793 -25.11202 3.90628 29.96698 3.17556 -1.85419 -7.73302 -9.11384 -2.11994 -23.14229 -6.36326 29.35311 120.71608 103.32799 10.5124 4.14318 -10.58219 8.12404 -21.75152 119.07991 -104.71083 16.5169 -1.79776 31.22478 -0.67406 -17.72321 -22.00052 -9.50481 -4.80952 -4.74883 35.92096 17.1702 0.21848 -13.29027 -12.4396 0.4228 2.69787
